<svg xmlns="http://www.w3.org/2000/svg" width="600" height="500" viewBox="0 0 600 500">
  <rect width="600" height="500" fill="#f7fafd"/>
  <g opacity="0.144" transform="translate(310,230)">
    <line x1="0" y1="-180" x2="0" y2="180" stroke="#185fa5" stroke-width="1.2"/>
    <line x1="-180" y1="0" x2="180" y2="0" stroke="#185fa5" stroke-width="1.2"/>
    <line x1="-127" y1="-127" x2="127" y2="127" stroke="#185fa5" stroke-width="1.2"/>
    <line x1="127" y1="-127" x2="-127" y2="127" stroke="#185fa5" stroke-width="1.2"/>
  </g>
  <g opacity="0.264">
    <polygon points="310,55 388,100 388,190 310,235 232,190 232,100" fill="none" stroke="#185fa5" stroke-width="1.44"/>
    <polygon points="310,90 372,125 372,195 310,230 248,195 248,125" fill="none" stroke="#185fa5" stroke-width="0.84"/>
  </g>
  <g opacity="0.168">
    <polygon points="310,280 415,340 415,460 310,520 205,460 205,340" fill="none" stroke="#fafdff" stroke-width="0.96"/>
  </g>
  <circle cx="310" cy="145" r="8" fill="none" stroke="#185fa5" stroke-width="1.8" opacity="0.54"/>
  <line x1="310" y1="137" x2="310" y2="72" stroke="#185fa5" stroke-width="1.2" opacity="0.42"/>
  <line x1="317" y1="150" x2="375" y2="183" stroke="#185fa5" stroke-width="1.2" opacity="0.42"/>
  <line x1="303" y1="150" x2="245" y2="183" stroke="#185fa5" stroke-width="1.2" opacity="0.42"/>
  <circle cx="310" cy="67" r="5" fill="#185fa5" opacity="0.42"/>
  <circle cx="378" cy="186" r="5" fill="#185fa5" opacity="0.42"/>
  <circle cx="242" cy="186" r="5" fill="#185fa5" opacity="0.42"/>
  <g opacity="0.168">
    <rect x="460" y="80" width="50" height="2.5" rx="1.25" fill="#fafdff"/>
    <rect x="478" y="98" width="32" height="2.5" rx="1.25" fill="#fafdff"/>
    <rect x="452" y="116" width="58" height="2.5" rx="1.25" fill="#fafdff"/>
    <rect x="468" y="134" width="42" height="2.5" rx="1.25" fill="#fafdff"/>
    <rect x="460" y="152" width="50" height="2.5" rx="1.25" fill="#fafdff"/>
  </g>
</svg>
